<?xml version="1.0" encoding="UTF-8"?>
<svg xmlns="http://www.w3.org/2000/svg" viewBox="0 0 16 16" width="16" height="16">
  <path fill="currentColor" d="M1.5 3A1.5 1.5 0 0 1 3 1.5h3.09a1.5 1.5 0 0 1 1.06.44l.91.91H13A1.5 1.5 0 0 1 14.5 4.35V5.5H13V4.35a.35.35 0 0 0-.35-.35H7.65a.5.5 0 0 1-.35-.15l-1.06-1.06a.5.5 0 0 0-.35-.14H3a.5.5 0 0 0-.5.5v8.35a.35.35 0 0 0 .35.35H7.5V13H2.85a1.35 1.35 0 0 1-1.35-1.35V3ZM12 8a.5.5 0 0 1 .5.5V11h2.5a.5.5 0 0 1 0 1H12.5v2.5a.5.5 0 0 1-1 0V12H9a.5.5 0 0 1 0-1h2.5V8.5A.5.5 0 0 1 12 8Z"/>
</svg>
